# xmcd CD database file
#
# Track frame offsets:
#	150
#	20723
#	39838
#	59188
#	74427
#	93240
#	117989
#	135737
#	152479
#	172100
#	188387
#	205196
#	222648
#	238312
#	259603
#
# Disc length: 3732 seconds
#
# Revision: 1
# Processed by: cddbd v1.5.2PL0 Copyright (c) Steve Scherf et al.
# Submitted via: CDex 1.51
#
DISCID=de0e920f
DTITLE=Kelly Rowland - Talk A Good Game (Deluxe Edition)
DYEAR=2013
DGENRE=R&B/Soul
TTITLE0=Kelly Rowland - Freak
TTITLE1=Kelly Rowland - Kisses Down Low
TTITLE2=Kelly Rowland feat. Wiz Khalifa - Gone
TTITLE3=Kelly Rowland feat. Kevin Cossom - Talk A Good Game
TTITLE4=Kelly Rowland - Down On Love
TTITLE5=Kelly Rowland - Dirty Laundry
TTITLE6=Kelly Rowland feat. Beyoncé and Michelle - You Changed
TTITLE7=Kelly Rowland - I Remember
TTITLE8=Kelly Rowland - Red Wine
TTITLE9=Kelly Rowland - This Is Love
TTITLE10=Kelly Rowland feat. Pusha T - Street Life
TTITLE11=Kelly Rowland - Stand In Front Of Me
TTITLE12=Kelly Rowland feat. The Dream - Sky Walker
TTITLE13=Kelly Rowland - Put Your Name On It
TTITLE14=Kelly Rowland - #1
EXTD=YEAR: 2013
EXTT0=
EXTT1=
EXTT2=
EXTT3=
EXTT4=
EXTT5=
EXTT6=
EXTT7=
EXTT8=
EXTT9=
EXTT10=
EXTT11=
EXTT12=
EXTT13=
EXTT14=
PLAYORDER=
